<?xml version="1.0" encoding="UTF-8"?>
<svg id="Layer_1" xmlns="http://www.w3.org/2000/svg" version="1.1" viewBox="0 0 1572.8 759.9">
  <!-- Generator: Adobe Illustrator 29.1.0, SVG Export Plug-In . SVG Version: 2.1.0 Build 142)  -->
  <defs>
    <style>
      .st0 {
        fill: #ff4d29;
      }

      .st1 {
        opacity: .6;
      }

      .st2 {
        fill: none;
        stroke: #ff4d29;
        stroke-miterlimit: 10;
      }
    </style>
  </defs>
  <g class="st1">
    <polygon class="st2" points="571 69.9 983.9 69.9 983.9 83.8 959.9 83.8 948.9 94.8 629.3 94.8 629.3 82.3 571 82.3 571 69.9"/>
    <g>
      <path class="st2" d="M567,187.1c-5.4,0-9.8,4.4-9.8,9.8s4.4,9.8,9.8,9.8,9.8-4.4,9.8-9.8-4.4-9.8-9.8-9.8ZM567,203.7c-3.8,0-6.9-3.1-6.9-6.9s3.1-6.9,6.9-6.9,6.9,3.1,6.9,6.9-3.1,6.9-6.9,6.9Z"/>
      <path class="st2" d="M450.9,187.1c-5.4,0-9.8,4.4-9.8,9.8s4.4,9.8,9.8,9.8,9.8-4.4,9.8-9.8-4.4-9.8-9.8-9.8ZM450.9,203.7c-3.8,0-6.9-3.1-6.9-6.9s3.1-6.9,6.9-6.9,6.9,3.1,6.9,6.9-3.1,6.9-6.9,6.9Z"/>
      <path class="st2" d="M528.3,187.1c-5.4,0-9.8,4.4-9.8,9.8s4.4,9.8,9.8,9.8,9.8-4.4,9.8-9.8-4.4-9.8-9.8-9.8ZM528.3,203.7c-3.8,0-6.9-3.1-6.9-6.9s3.1-6.9,6.9-6.9,6.9,3.1,6.9,6.9-3.1,6.9-6.9,6.9Z"/>
      <path class="st2" d="M605.7,187.1c-5.4,0-9.8,4.4-9.8,9.8s4.4,9.8,9.8,9.8,9.8-4.4,9.8-9.8-4.4-9.8-9.8-9.8ZM605.7,203.7c-3.8,0-6.9-3.1-6.9-6.9s3.1-6.9,6.9-6.9,6.9,3.1,6.9,6.9-3.1,6.9-6.9,6.9Z"/>
      <path class="st2" d="M1330.5,157.8h-125.2l-20,20h-116.8v13.3h-427.3v-17.1h-210.8v43.6h194.2v10.3h509.3v-9.9h125.5v-29.4h55.9l71.9,71.9v17.7h34.1v-29.8l-90.7-90.7ZM450.9,209.3c-6.9,0-12.5-5.6-12.5-12.5s5.6-12.5,12.5-12.5,12.5,5.6,12.5,12.5-5.6,12.5-12.5,12.5ZM489.6,209.3c-6.9,0-12.5-5.6-12.5-12.5s5.6-12.5,12.5-12.5,12.5,5.6,12.5,12.5-5.6,12.5-12.5,12.5ZM528.3,209.3c-6.9,0-12.5-5.6-12.5-12.5s5.6-12.5,12.5-12.5,12.5,5.6,12.5,12.5-5.6,12.5-12.5,12.5ZM567,209.3c-6.9,0-12.5-5.6-12.5-12.5s5.6-12.5,12.5-12.5,12.5,5.6,12.5,12.5-5.6,12.5-12.5,12.5ZM605.7,209.3c-6.9,0-12.5-5.6-12.5-12.5s5.6-12.5,12.5-12.5,12.5,5.6,12.5,12.5-5.6,12.5-12.5,12.5ZM1240.6,201.7h-116.1v-9.8h116.1v9.8Z"/>
      <path class="st2" d="M489.6,187.1c-5.4,0-9.8,4.4-9.8,9.8s4.4,9.8,9.8,9.8,9.8-4.4,9.8-9.8-4.4-9.8-9.8-9.8ZM489.6,203.7c-3.8,0-6.9-3.1-6.9-6.9s3.1-6.9,6.9-6.9,6.9,3.1,6.9,6.9-3.1,6.9-6.9,6.9Z"/>
    </g>
    <g>
      <rect class="st2" x="1483.1" y="78.2" width="7.2" height="66.4" transform="translate(356.7 1083.9) rotate(-45)"/>
      <polygon class="st2" points="1455.3 91.4 1445.1 91.4 1506.4 152.7 1506.4 142.4 1455.3 91.4"/>
      <polygon class="st2" points="1506.4 169.2 1506.4 159 1438.8 91.4 1432.9 91.4 1411.5 69.9 1407.2 69.9 1506.4 169.2"/>
      <polygon class="st2" points="1522.6 86.3 1522.6 76 1512.4 76 1522.6 86.3"/>
      <polygon class="st2" points="1506.1 76 1495.9 76 1522.6 102.8 1522.6 92.6 1506.1 76"/>
      <rect class="st2" x="1491.4" y="69.9" width="7.2" height="66.4" transform="translate(365 1087.3) rotate(-45)"/>
      <polygon class="st2" points="1506.4 181.2 1506.4 175.5 1400.9 69.9 1363.4 69.9 1363.4 118.6 1407.5 162.7 1433.3 162.7 1492.9 222.2 1492.9 248.6 1522.6 278.3 1520.5 195.3 1506.4 181.2"/>
      <polygon class="st2" points="1489.6 76 1479.3 76 1522.6 119.3 1522.6 109.1 1489.6 76"/>
    </g>
    <polygon class="st2" points="1019.8 690 588.8 690 588.8 676.1 612.9 676.1 623.9 665.1 961.5 665.1 961.5 677.6 1019.8 677.6 1019.8 690"/>
    <g>
      <path class="st2" d="M1023.8,572.8c5.4,0,9.8-4.4,9.8-9.8,0-5.4-4.4-9.8-9.8-9.8-5.4,0-9.8,4.4-9.8,9.8,0,5.4,4.4,9.8,9.8,9.8ZM1023.8,556.2c3.8,0,6.9,3.1,6.9,6.9s-3.1,6.9-6.9,6.9-6.9-3.1-6.9-6.9,3.1-6.9,6.9-6.9Z"/>
      <path class="st2" d="M1139.9,572.8c5.4,0,9.8-4.4,9.8-9.8s-4.4-9.8-9.8-9.8-9.8,4.4-9.8,9.8c0,5.4,4.4,9.8,9.8,9.8ZM1139.9,556.2c3.8,0,6.9,3.1,6.9,6.9,0,3.8-3.1,6.9-6.9,6.9-3.8,0-6.9-3.1-6.9-6.9s3.1-6.9,6.9-6.9Z"/>
      <path class="st2" d="M1062.5,572.8c5.4,0,9.8-4.4,9.8-9.8,0-5.4-4.4-9.8-9.8-9.8-5.4,0-9.8,4.4-9.8,9.8,0,5.4,4.4,9.8,9.8,9.8ZM1062.5,556.2c3.8,0,6.9,3.1,6.9,6.9s-3.1,6.9-6.9,6.9c-3.8,0-6.9-3.1-6.9-6.9s3.1-6.9,6.9-6.9Z"/>
      <path class="st2" d="M985.1,572.8c5.4,0,9.8-4.4,9.8-9.8,0-5.4-4.4-9.8-9.8-9.8s-9.8,4.4-9.8,9.8c0,5.4,4.4,9.8,9.8,9.8ZM985.1,556.2c3.8,0,6.9,3.1,6.9,6.9s-3.1,6.9-6.9,6.9c-3.8,0-6.9-3.1-6.9-6.9s3.1-6.9,6.9-6.9Z"/>
      <path class="st2" d="M242.3,602.1h125.2s20-20,20-20h116.8s0-13.3,0-13.3h445.3v17.1s210.8,0,210.8,0v-43.6s-194.2,0-194.2,0v-10.3s-527.3,0-527.3,0v9.9h-125.5s0,29.4,0,29.4h-55.9s-71.9-71.9-71.9-71.9v-17.7s-34.1,0-34.1,0v29.8s90.7,90.7,90.7,90.7ZM1139.9,550.6c6.9,0,12.5,5.6,12.5,12.5,0,6.9-5.6,12.5-12.5,12.5s-12.5-5.6-12.5-12.5c0-6.9,5.6-12.5,12.5-12.5ZM1101.2,550.6c6.9,0,12.5,5.6,12.5,12.5,0,6.9-5.6,12.5-12.5,12.5s-12.5-5.6-12.5-12.5,5.6-12.5,12.5-12.5ZM1062.5,550.6c6.9,0,12.5,5.6,12.5,12.5,0,6.9-5.6,12.5-12.5,12.5-6.9,0-12.5-5.6-12.5-12.5,0-6.9,5.6-12.5,12.5-12.5ZM1023.8,550.6c6.9,0,12.5,5.6,12.5,12.5,0,6.9-5.6,12.5-12.5,12.5s-12.5-5.6-12.5-12.5c0-6.9,5.6-12.5,12.5-12.5ZM985.1,550.6c6.9,0,12.5,5.6,12.5,12.5,0,6.9-5.6,12.5-12.5,12.5s-12.5-5.6-12.5-12.5c0-6.9,5.6-12.5,12.5-12.5ZM332.1,558.2h116.1v9.8h-116.1v-9.8Z"/>
      <path class="st2" d="M1101.2,572.8c5.4,0,9.8-4.4,9.8-9.8,0-5.4-4.4-9.8-9.8-9.8s-9.8,4.4-9.8,9.8c0,5.4,4.4,9.8,9.8,9.8ZM1101.2,556.2c3.8,0,6.9,3.1,6.9,6.9s-3.1,6.9-6.9,6.9c-3.8,0-6.9-3.1-6.9-6.9s3.1-6.9,6.9-6.9Z"/>
    </g>
    <g>
      <rect class="st2" x="82.4" y="615.3" width="7.2" height="66.4" transform="translate(-433.4 250.8) rotate(-45)"/>
      <polygon class="st2" points="117.4 668.5 127.7 668.5 66.3 607.2 66.3 617.5 117.4 668.5"/>
      <polygon class="st2" points="66.3 590.7 66.3 600.9 134 668.5 139.9 668.5 161.3 690 165.6 690 66.3 590.7"/>
      <polygon class="st2" points="50.1 673.6 50.1 683.8 60.4 683.8 50.1 673.6"/>
      <polygon class="st2" points="66.7 683.8 76.9 683.8 50.1 657.1 50.1 667.3 66.7 683.8"/>
      <rect class="st2" x="74.1" y="623.6" width="7.2" height="66.4" transform="translate(-441.6 247.3) rotate(-45)"/>
      <polygon class="st2" points="66.3 578.7 66.3 584.4 171.9 690 209.4 690 209.4 641.3 165.3 597.2 139.4 597.2 79.9 537.7 79.9 511.3 50.1 481.6 52.2 564.6 66.3 578.7"/>
      <polygon class="st2" points="83.2 683.8 93.4 683.8 50.1 640.6 50.1 650.8 83.2 683.8"/>
    </g>
  </g>
  <g class="st1">
    <polygon class="st2" points="1043.8 132 1065 132 1101.4 95.6 1131.8 95.6 1131.8 91.8 1187.6 91.8 1187.6 95.6 1326.7 95.6 1301.1 69.9 1043.8 69.9 1043.8 132"/>
    <path class="st2" d="M70.2,195.2v121l15.3,15.3,78.9-78.9h26.5v-3.9h19.4v3.9h54.2l79.6-79.6v-48.6h-124.8v70.7h-59.1v6.3h-53.4v-6.3h-36.6ZM304.6,160.3h7.7v-7.7h4.7v7.7h7.7v4.7h-7.7v7.7h-4.7v-7.7h-7.7v-4.7ZM118.5,254.6c0,6.5-5.2,11.7-11.7,11.7-6.5,0-11.7-5.2-11.7-11.7,0-6.5,5.2-11.7,11.7-11.7,6.5,0,11.7,5.2,11.7,11.7Z"/>
    <path class="st2" d="M1256.6,99.6v38.4h93.6l153.5,153.5h18.8l-191.9-191.9h-74.1ZM1284.7,131.2c-6.5,0-11.7-5.2-11.7-11.7,0-6.5,5.2-11.7,11.7-11.7,6.5,0,11.7,5.2,11.7,11.7,0,6.5-5.2,11.7-11.7,11.7Z"/>
    <rect class="st2" x="647.1" y="115.5" width="349.3" height="7.9"/>
    <path class="st2" d="M99.1,254.6c0,4.2,3.4,7.7,7.7,7.7,4.2,0,7.7-3.4,7.7-7.7,0-4.2-3.4-7.7-7.7-7.7-4.2,0-7.7,3.4-7.7,7.7ZM112.7,254.6c0,3.3-2.7,6-6,6s-6-2.7-6-6,2.7-6,6-6,6,2.7,6,6Z"/>
    <path class="st2" d="M300,72.2v48.3h139.9v-29.4h68.7l40.9,40.9h22.8v-3.1h49.8v3.1h417.6v-62.1h-40.8v32.3h-437.2v-32.3l-261.7,2.3ZM308.6,113.5h-4.3v-25.9h4.3v25.9ZM319.1,113.5h-4.3v-25.9h4.3v25.9ZM329.6,113.5h-4.3v-25.9h4.3v25.9ZM340.1,113.5h-4.3v-25.9h4.3v25.9ZM350.6,113.5h-4.3v-25.9h4.3v25.9ZM361.1,113.5h-4.3v-25.9h4.3v25.9ZM371.6,113.5h-4.3v-25.9h4.3v25.9ZM382.1,113.5h-4.3v-25.9h4.3v25.9ZM392.6,113.5h-4.3v-25.9h4.3v25.9ZM403.2,113.5h-4.3v-25.9h4.3v25.9ZM413.7,113.5h-4.3v-25.9h4.3v25.9ZM424.2,113.5h-4.3v-25.9h4.3v25.9ZM434.7,113.5h-4.3v-25.9h4.3v25.9ZM643.1,111.5h357.3v15.9h-357.3v-15.9Z"/>
    <polygon class="st2" points="166.1 256.6 129.5 293.1 129.5 334 142.9 334 142.9 331 217.3 331 217.3 334 227.3 334 227.3 256.6 210.3 256.6 210.3 260.6 190.9 260.6 190.9 256.6 166.1 256.6"/>
    <path class="st2" d="M280.4,380.6v-53l67.2-67.2-42.6-42.6-38.9,38.9h-34.9v81.4h-14v3.3h-74.4v-3.3h-17.4v-40.9l-37.2,37.2,21.6,21.6h128.8v24.6h41.7ZM237.6,322.3v-48.4c0-3.3,2.7-6,6-6s6,2.7,6,6v48.4c0,3.3-2.7,6-6,6s-6-2.7-6-6Z"/>
    <path class="st2" d="M1284.7,111.8c-4.2,0-7.7,3.4-7.7,7.7,0,4.2,3.4,7.7,7.7,7.7,4.2,0,7.7-3.4,7.7-7.7,0-4.2-3.4-7.7-7.7-7.7ZM1284.7,125.4c-3.3,0-6-2.7-6-6s2.7-6,6-6,6,2.7,6,6-2.7,6-6,6Z"/>
    <path class="st2" d="M477.6,119.1c-4.2,0-7.7,3.4-7.7,7.7,0,4.2,3.4,7.7,7.7,7.7,4.2,0,7.7-3.4,7.7-7.7,0-4.2-3.4-7.7-7.7-7.7ZM477.6,132.8c-3.3,0-6-2.7-6-6s2.7-6,6-6,6,2.7,6,6-2.7,6-6,6Z"/>
    <path class="st2" d="M131.4,120.5h164.7v-48.2l-172.8,1.5-19.3,19.3,27.4,27.4ZM140.2,92.9h7.7v-7.7h4.7v7.7h7.7v4.7h-7.7v7.7h-4.7v-7.7h-7.7v-4.7Z"/>
    <path class="st2" d="M547.9,136l-40.9-40.9h-63v29.4h-95.9v50.2l-40.2,40.2,42.6,42.6,21.8-21.8v-54.9l26-26h756.8l16.8-16.8h80.6v-38.4h-65.1v3.6h-55.7v-3.6h-28.8l-36.5,36.5h-444.5v2.9h-49.8v-2.9h-24.4ZM477.6,138.5c-6.5,0-11.7-5.2-11.7-11.7,0-6.5,5.2-11.7,11.7-11.7,6.5,0,11.7,5.2,11.7,11.7,0,6.5-5.2,11.7-11.7,11.7ZM1179.1,125.4h57.3c2.4,0,4.3,1.9,4.3,4.3s-1.9,4.3-4.3,4.3h-57.3c-2.4,0-4.3-1.9-4.3-4.3s1.9-4.3,4.3-4.3Z"/>
    <path class="st2" d="M106.8,191.2v-6.3h53.4v6.3h55.1v-66.7h-85.6l-28.6-28.6-30.9,30.9v64.4h36.6ZM168.6,142.7h35.1v35.1h-35.1v-35.1Z"/>
    <rect class="st2" x="172.6" y="146.7" width="27.1" height="27.1"/>
    <path class="st2" d="M1432.5,302.7v-3.2h-49.7v3.2h-20.2v-33.4l-29.3-29.3h-86.6v26.7h-76.4v-3.4h-49.7v3.4h-158.8v-20.9h-365.7v-3h-99.5v3h-81.4l-101.8,101.8v65.3h-104.7v-33.5h-95.7v2.7h93.1v33.5h110.1v-66.9l100.2-100.2h80.3v3h99.5v-3h363.1v20.9h161.5v2.6h49.7v-2.6h79.1v-26.7h82.9l27.7,27.7v35h22.9v2.9h49.7v-2.9h12.6v-2.7h-12.6Z"/>
    <polygon class="st2" points="529 627.9 507.8 627.9 471.3 664.3 440.9 664.3 440.9 668.1 385.2 668.1 385.2 664.3 246 664.3 271.7 690 529 690 529 627.9"/>
    <path class="st2" d="M1520.6,564.7v-121s-15.3-15.3-15.3-15.3l-78.9,78.9h-26.5s0,3.9,0,3.9h-19.4v-3.9s-54.2,0-54.2,0l-79.6,79.6v48.6s124.8,0,124.8,0v-70.7h59.1s0-6.3,0-6.3h53.4v6.3s36.6,0,36.6,0ZM1286.2,599.6h-7.7s0,7.7,0,7.7h-4.7v-7.7s-7.7,0-7.7,0v-4.7h7.7s0-7.7,0-7.7h4.7v7.7s7.7,0,7.7,0v4.7ZM1472.3,505.3c0-6.5,5.2-11.7,11.7-11.7,6.5,0,11.7,5.2,11.7,11.7,0,6.5-5.2,11.7-11.7,11.7-6.5,0-11.7-5.2-11.7-11.7Z"/>
    <path class="st2" d="M316.1,660.3v-38.4s-93.6,0-93.6,0l-153.5-153.5h-18.8s191.9,191.9,191.9,191.9h74.1ZM288.1,628.7c6.5,0,11.7,5.2,11.7,11.7,0,6.5-5.2,11.7-11.7,11.7-6.5,0-11.7-5.2-11.7-11.7,0-6.5,5.2-11.7,11.7-11.7Z"/>
    <rect class="st2" x="576.4" y="636.5" width="367.3" height="7.9"/>
    <path class="st2" d="M1491.7,505.3c0-4.2-3.4-7.7-7.7-7.7-4.2,0-7.7,3.4-7.7,7.7,0,4.2,3.4,7.7,7.7,7.7,4.2,0,7.7-3.4,7.7-7.7ZM1478,505.3c0-3.3,2.7-6,6-6s6,2.7,6,6c0,3.3-2.7,6-6,6-3.3,0-6-2.7-6-6Z"/>
    <path class="st2" d="M1290.7,687.7v-48.3s-139.9,0-139.9,0v29.4h-68.7s-40.9-40.9-40.9-40.9h-22.8s0,3.1,0,3.1h-49.8v-3.1s-435.6,0-435.6,0v62.1s40.8,0,40.8,0v-32.3h455.2v32.3s261.7-2.3,261.7-2.3ZM1282.2,646.4h4.3v25.9h-4.3v-25.9ZM1271.7,646.4h4.3v25.9h-4.3v-25.9ZM1261.2,646.4h4.3v25.9h-4.3v-25.9ZM1250.7,646.4h4.3v25.9h-4.3v-25.9ZM1240.2,646.4h4.3v25.9h-4.3v-25.9ZM1229.7,646.4h4.3v25.9h-4.3v-25.9ZM1219.2,646.4h4.3v25.9h-4.3v-25.9ZM1208.6,646.4h4.3v25.9h-4.3v-25.9ZM1198.1,646.4h4.3v25.9h-4.3v-25.9ZM1187.6,646.4h4.3v25.9h-4.3v-25.9ZM1177.1,646.4h4.3v25.9h-4.3v-25.9ZM1166.6,646.4h4.3v25.9h-4.3v-25.9ZM1156.1,646.4h4.3v25.9h-4.3v-25.9ZM947.7,648.4h-375.3v-13.9s0-2,0-2h375.3v15.9Z"/>
    <polygon class="st2" points="1424.7 503.3 1461.2 466.8 1461.2 425.9 1447.9 425.9 1447.9 428.9 1373.5 428.9 1373.5 425.9 1363.5 425.9 1363.5 503.3 1380.5 503.3 1380.5 499.3 1399.8 499.3 1399.8 503.3 1424.7 503.3"/>
    <path class="st2" d="M1310.3,379.3v53s-67.2,67.2-67.2,67.2l42.6,42.6,38.9-38.9h34.9s0-81.4,0-81.4h14s0-3.3,0-3.3h74.4v3.3s17.4,0,17.4,0v40.9s37.2-37.2,37.2-37.2l-21.6-21.6h-128.8v-24.6s-41.7,0-41.7,0ZM1353.1,437.6v48.4c0,3.3-2.7,6-6,6-3.3,0-6-2.7-6-6v-48.4c0-3.3,2.7-6,6-6,3.3,0,6,2.7,6,6Z"/>
    <path class="st2" d="M288.1,648.1c4.2,0,7.7-3.4,7.7-7.7,0-4.2-3.4-7.7-7.7-7.7-4.2,0-7.7,3.4-7.7,7.7,0,4.2,3.4,7.7,7.7,7.7ZM288.1,634.5c3.3,0,6,2.7,6,6s-2.7,6-6,6-6-2.7-6-6,2.7-6,6-6Z"/>
    <path class="st2" d="M1113.2,640.8c4.2,0,7.7-3.4,7.7-7.7,0-4.2-3.4-7.7-7.7-7.7-4.2,0-7.7,3.4-7.7,7.7,0,4.2,3.4,7.7,7.7,7.7ZM1113.2,627.1c3.3,0,6,2.7,6,6,0,3.3-2.7,6-6,6-3.3,0-6-2.7-6-6,0-3.3,2.7-6,6-6Z"/>
    <path class="st2" d="M1459.4,639.4h-164.7s0,48.2,0,48.2l172.8-1.5,19.3-19.3-27.4-27.4ZM1450.6,667h-7.7s0,7.7,0,7.7h-4.7v-7.7s-7.7,0-7.7,0v-4.7h7.7s0-7.7,0-7.7h4.7v7.7s7.7,0,7.7,0v4.7Z"/>
    <path class="st2" d="M1042.9,623.9l40.9,40.9h63s0-29.4,0-29.4h95.9s0-50.2,0-50.2l40.2-40.2-42.6-42.6-21.8,21.8v54.9s-26,26-26,26H417.6s-16.8,16.8-16.8,16.8h-80.6s0,38.4,0,38.4h65.1s0-3.6,0-3.6h55.7v3.6s28.8,0,28.8,0l36.5-36.5h462.5s0-2.9,0-2.9h49.8v2.9s24.4,0,24.4,0ZM1113.2,621.4c6.5,0,11.7,5.2,11.7,11.7,0,6.5-5.2,11.7-11.7,11.7-6.5,0-11.7-5.2-11.7-11.7,0-6.5,5.2-11.7,11.7-11.7ZM393.7,634.5h-57.3c-2.4,0-4.3-1.9-4.3-4.3s1.9-4.3,4.3-4.3h57.3c2.4,0,4.3,1.9,4.3,4.3s-1.9,4.3-4.3,4.3Z"/>
    <path class="st2" d="M1484,568.7v6.3h-53.4v-6.3s-55.1,0-55.1,0v66.7s85.6,0,85.6,0l28.6,28.6,30.9-30.9v-64.4s-36.6,0-36.6,0ZM1422.2,617.2h-35.1v-33.1s0-2,0-2h35.1v35.1Z"/>
    <rect class="st2" x="1391.1" y="586" width="27.1" height="27.1"/>
    <path class="st2" d="M140.3,457.2v3.2s49.7,0,49.7,0v-3.2h20.2v33.4s29.3,29.3,29.3,29.3h86.6s0-26.7,0-26.7h76.4v3.4s49.7,0,49.7,0v-3.4h158.8v20.9s383.8,0,383.8,0v3s99.5,0,99.5,0v-3h81.4s101.8-101.8,101.8-101.8v-65.3h104.7v33.5s95.7,0,95.7,0v-2.7s-93.1,0-93.1,0v-33.5s-110.1,0-110.1,0v66.9s-100.2,100.2-100.2,100.2h-80.3v-3s-99.5,0-99.5,0v3h-381.1v-20.9s-161.5,0-161.5,0v-2.6s-49.7,0-49.7,0v2.6h-79.1s0,26.7,0,26.7h-82.9s-27.7-27.7-27.7-27.7v-35s-22.9,0-22.9,0v-2.9s-49.7,0-49.7,0v2.9h-12.6s0,2.7,0,2.7h12.6Z"/>
  </g>
  <g>
    <path class="st0" d="M593.3,295c.3,0,.5.3.5.7v123.4h67.9v-123.4c0-.5.2-.7.5-.7h34.2c.4,0,.6.3.6.7v169.9c0,.5-.2.7-.6.7h-137.3c-.4,0-.6-.2-.6-.7v-169.9c0-.5.2-.7.6-.7h34.2Z"/>
    <path class="st0" d="M709.8,466.3v-171.3h35.3v171.3h-35.3Z"/>
    <path class="st0" d="M539.3,360.9v-35.3h-30.6v-30.6h-35.3v30.6h-39.5v-30.6h-35.3v30.6h-30.6v35.3h30.6v39.5h-30.6v35.3h30.6v30.6h35.3v-30.6h39.5v30.6h35.3v-30.6h30.6v-35.3h-30.6v-39.5h30.6ZM473.4,400.4h-39.5v-39.5h39.5v39.5Z"/>
    <path class="st0" d="M792.7,295c.3,0,.5.3.5.7v123.4h67.9v-123.4c0-.5.2-.7.5-.7h34.2c.4,0,.6.3.6.7v169.9c0,.5-.2.7-.6.7h-137.3c-.4,0-.6-.2-.6-.7v-169.9c0-.5.2-.7.6-.7h34.2Z"/>
    <path class="st0" d="M909.3,295.6c0-.5.2-.7.6-.7h139.5c.4,0,.6.3.6.7v107.8c0,.5-.2.7-.6.7h-45.5v.5c29.7,24.9,45.1,38.1,46.1,39.4v21.5c0,.5-.2.7-.6.7h-34.2c-.6,0-13.4-11.1-38.5-33.3-20.2-18.1-30.7-27.3-31.5-27.6v60.2c0,.5-.2.7-.5.7h-34.7c-.4,0-.6-.2-.6-.7v-169.9ZM945.1,357.4h68.9v-15.8h-68.9v15.8Z"/>
    <path class="st0" d="M1200.8,341.6c.3,0,.5-.2.5-.7v-45.3c0-.4-.1-.6-.5-.7h-138v.5s0,.1,0,.1v169.9c0,.1,0,.2,0,.3v.4h13.8l.8-71.3c-2.2-.8-3.8-2.9-3.7-5.4,0-3.1,2.6-5.6,5.6-5.6,3.1,0,5.5,2.6,5.5,5.7,0,2.5-1.7,4.6-3.9,5.4l-.9,71.2h6.8l2.2-87.2h-11.5c0,.1.5-44,.5-44-2.2-.8-3.8-3-3.8-5.4,0-3.1,2.6-5.7,5.6-5.6,3.1,0,5.6,2.6,5.5,5.7,0,2.5-1.7,4.6-3.9,5.4l-.5,40.5h11.6c0-.1-2.3,90.7-2.3,90.7h110.4c.3,0,.5-.3.5-.7v-45.3c0-.4-.1-.7-.5-.7h-102.7v-77.9h102.7Z"/>
  </g>
</svg>