<?xml version="1.0" encoding="UTF-8"?>
<svg id="Layer_1" xmlns="http://www.w3.org/2000/svg" version="1.1" xmlns:xlink="http://www.w3.org/1999/xlink" viewBox="0 0 290 312.6">
  <!-- Generator: Adobe Illustrator 29.1.0, SVG Export Plug-In . SVG Version: 2.1.0 Build 142)  -->
  <defs>
    <style>
      .st0 {
        fill: #ff4d29;
      }

      .st1 {
        fill: #fff;
      }

      .st2 {
        fill: #383838;
      }

      .st3 {
        fill: #444;
      }

      .st4 {
        fill: none;
      }

      .st5 {
        opacity: .5;
      }

      .st6 {
        fill: #282828;
      }

      .st7 {
        fill: #444;
      }

      .st8 {
        clip-path: url(#clippath);
      }
    </style>
    <clipPath id="clippath">
      <path class="st4" d="M257.4,72.6c-.5,40.3-11.1,79.9-30.8,114.8-19.7,34.9-48.5,58.5-82.2,79.1-33.8-20.6-61.3-44.2-81-79.1-19.7-34.9-30.3-74.5-30.8-114.8,35.3-20.3,74.1-31,112.4-31s77.1,10.7,112.4,31Z"/>
    </clipPath>
  </defs>
  <path class="st0" d="M258.8,70c-.5,41.2-11.3,81.8-31.2,117.6-19.9,35.7-48.4,65.7-82.6,86.8-34.2-21.1-62.7-51-82.6-86.8-19.9-35.7-30.6-76.3-31.2-117.6,35.7-20.8,75-31.8,113.8-31.8s78,11,113.8,31.8Z"/>
  <g>
    <path class="st6" d="M257.4,72.6c-.5,40.3-11.1,79.9-30.8,114.8-19.7,34.9-48.5,58.5-82.2,79.1-33.8-20.6-61.3-44.2-81-79.1-19.7-34.9-30.3-74.5-30.8-114.8,35.3-20.3,74.1-31,112.4-31s77.1,10.7,112.4,31Z"/>
    <g class="st8">
      <g class="st5">
        <g>
          <path class="st2" d="M158.1,256.9c-3.9,2.6-7.8,5.1-11.9,7.6-.4-32.4-.8-64.7-1.2-97.1-.1-8.2-.2-16.4-.3-24.6,2.5,0,5.1-.1,7.6-.2.4,8.3.8,16.5,1.3,24.8,1.5,29.9,3,59.7,4.5,89.6Z"/>
          <path class="st2" d="M176.8,243.4c-3.6,2.8-7.2,5.5-10.9,8.2-2.1-28.1-4.3-56.3-6.5-84.4-.6-8.3-1.3-16.7-1.9-25,2.5-.2,5.1-.4,7.6-.7,1,8.5,1.9,17,2.9,25.4,2.9,25.5,5.9,51,8.8,76.5Z"/>
          <path class="st2" d="M193.7,228.6c-3.2,3.1-6.5,6.1-9.9,9-3.3-23.7-6.7-47.4-10-71-1.1-8.1-2.3-16.3-3.4-24.4,0-.5-.1-.9-.2-1.4,1.5-.2,3-.4,4.5-.7,1-.2,2-.3,3.1-.5,1.6,8.8,3.2,17.7,4.8,26.5,3.8,20.9,7.5,41.7,11.3,62.6Z"/>
          <path class="st2" d="M208.9,212.3c-2.8,3.4-5.8,6.7-8.8,9.9-3.9-18.9-7.8-37.8-11.7-56.7-1.4-6.9-2.9-13.8-4.3-20.7-.4-2.1-.9-4.3-1.3-6.4,1.3-.3,2.6-.6,4-.9,1.2-.3,2.3-.5,3.5-.8.2,1,.5,2,.7,3,.6,2.5,1.2,5,1.9,7.5,1.4,5.8,2.9,11.7,4.3,17.6,3.9,15.8,7.8,31.7,11.7,47.5Z"/>
          <path class="st2" d="M221.9,194.4c-2.4,3.8-4.9,7.4-7.5,10.9-3.8-13.7-7.5-27.4-11.3-41.1-2-7.2-3.9-14.4-5.9-21.5-.7-2.4-1.3-4.8-2-7.2,1.6-.4,3.1-.9,4.7-1.4.9-.3,1.8-.6,2.7-.8.4,1.4.9,2.7,1.3,4.1,1.1,3.6,2.3,7.2,3.4,10.9,1.6,5,3.1,10,4.7,14.9,3.3,10.4,6.6,20.8,9.8,31.1Z"/>
          <path class="st2" d="M232.7,175c-1.8,3.7-3.7,7.3-5.7,10.9-.1.3-.3.5-.4.8-2.8-8.1-5.6-16.2-8.4-24.2-.7-2-1.4-4-2.1-6-1.1-3.2-2.2-6.3-3.3-9.5-.8-2.3-1.6-4.6-2.4-6.9-.9-2.7-1.9-5.5-2.8-8.2,2.3-.8,4.7-1.7,7-2.6,0,0,.2,0,.3-.1.9,2.2,1.7,4.4,2.6,6.6,1.2,3.2,2.5,6.4,3.7,9.6.8,2,1.6,4.1,2.4,6.1,1.1,2.9,2.2,5.7,3.3,8.6.1.3.3.7.4,1,1.8,4.6,3.6,9.2,5.4,13.9Z"/>
          <path class="st2" d="M241.4,155.3c-.5,1.3-1,2.6-1.5,3.9-1.1,2.7-2.2,5.3-3.4,7.9-1-2.3-1.9-4.6-2.9-6.9-1-2.3-1.9-4.6-2.9-6.9-1.2-2.9-2.4-5.8-3.6-8.6-.9-2.1-1.7-4.1-2.6-6.1-1.3-3.2-2.7-6.4-4-9.6-.2-.5-.4-1-.6-1.5.5-.2,1-.4,1.6-.7,1.9-.8,3.7-1.6,5.5-2.5.7,1.5,1.4,3,2.1,4.5,1,2.1,1.9,4.1,2.9,6.2,1.4,2.9,2.7,5.8,4.1,8.7l5.4,11.7Z"/>
          <path class="st2" d="M248.1,135.4c-1.2,4-2.4,7.9-3.8,11.8-1.6-3.3-3.3-6.6-4.9-9.9-1.5-2.9-2.9-5.8-4.4-8.8h0c-1-2.1-2.1-4.1-3.1-6.2,0-.2-.2-.4-.3-.6.2-.1.5-.2.7-.4,2.1-1.1,4.2-2.2,6.3-3.3.3.5.5,1,.8,1.5,1.6,2.9,3.2,5.8,4.8,8.8,1.3,2.3,2.6,4.7,3.8,7Z"/>
          <path class="st2" d="M52.7,121.5c-.7,1.3-1.3,2.6-2,4-1.5,3-3,5.9-4.4,8.9-.8,1.6-1.6,3.3-2.5,4.9-1.2-3.9-2.3-7.9-3.3-11.9.3-.6.7-1.2,1-1.8,1.4-2.6,2.8-5.2,4.2-7.8.5.3,1.1.6,1.6.9h0c1.8,1,3.5,1.9,5.3,2.8Z"/>
          <path class="st2" d="M64.6,127c-1.1,2.7-2.2,5.3-3.4,8-.9,2.1-1.8,4.2-2.6,6.3-1.2,2.9-2.5,5.9-3.7,8.8h0c-1.3,3.1-2.6,6.2-3.9,9.2,0,0,0,0,0,0,0,0,0,0,0,0-1.6-3.9-3.1-7.9-4.5-11.9,1.1-2.3,2.1-4.6,3.2-6.8h0c1.4-3,2.8-5.9,4.1-8.9,1-2.1,2-4.2,2.9-6.3.2-.5.5-1,.7-1.6,2.4,1.1,4.7,2.2,7.1,3.2Z"/>
          <path class="st2" d="M76.7,131.7c-.5,1.4-1,2.9-1.5,4.3-.8,2.3-1.6,4.7-2.4,7-1.1,3.2-2.2,6.5-3.3,9.7-1,3-2.1,6.1-3.1,9.1-2,5.8-4,11.7-6,17.5-2-3.9-4-7.9-5.8-11.9.9-2.3,1.8-4.7,2.7-7,.5-1.2.9-2.4,1.4-3.5,1.1-2.9,2.3-5.8,3.4-8.7.8-2.1,1.6-4.2,2.4-6.2,1.3-3.3,2.5-6.5,3.8-9.8.4-1,.8-2.1,1.2-3.1,1.2.5,2.4.9,3.6,1.4,1.2.5,2.5.9,3.7,1.3Z"/>
          <path class="st2" d="M89,135.5c-.2.7-.4,1.3-.5,2-.7,2.7-1.5,5.4-2.2,8.1-.4,1.6-.9,3.2-1.3,4.9-1.2,4.4-2.4,8.8-3.6,13.3-3.2,11.7-6.4,23.3-9.6,35-2.5-3.7-4.8-7.5-7.1-11.4,2.6-8.2,5.2-16.4,7.8-24.6.9-2.7,1.7-5.4,2.6-8.1.4-1.2.8-2.4,1.1-3.6.7-2.3,1.5-4.6,2.2-7,1.1-3.5,2.2-7.1,3.4-10.6.1,0,.3,0,.4.1,1.9.6,3.8,1.2,5.7,1.7.4.1.9.2,1.3.4Z"/>
          <path class="st2" d="M101.5,138.5c-.1.5-.2,1-.3,1.5-1.7,8.4-3.5,16.8-5.2,25.2-3.5,17.2-7.1,34.3-10.6,51.5-2.9-3.4-5.7-6.9-8.4-10.5,3.4-13.9,6.9-27.8,10.3-41.8,1.4-5.8,2.8-11.5,4.3-17.3.8-3.4,1.7-6.9,2.5-10.3.5.1,1.1.3,1.6.4,1.7.4,3.4.8,5.1,1.2.2,0,.5.1.7.2Z"/>
          <path class="st2" d="M114.1,140.8c0,.6-.2,1.3-.3,1.9-1.1,7.9-2.2,15.8-3.3,23.6-3.1,22.2-6.3,44.5-9.4,66.7-3.3-3.1-6.5-6.2-9.6-9.5,3.5-19.3,6.9-38.5,10.4-57.8,1.3-7.1,2.6-14.3,3.8-21.4.3-1.6.6-3.2.9-4.8.5,0,1,.2,1.5.3,1.6.3,3.2.5,4.7.8.4,0,.9.1,1.3.2Z"/>
          <path class="st2" d="M126.8,142.2c-.6,8.3-1.3,16.6-1.9,24.9-2.1,26.9-4.1,53.8-6.2,80.7-3.7-2.8-7.3-5.7-10.7-8.6,2.8-24.2,5.5-48.3,8.3-72.5,1-8.3,1.9-16.6,2.8-24.8,0-.1,0-.3,0-.4.1,0,.3,0,.4,0,2.4.3,4.8.5,7.2.7Z"/>
          <path class="st2" d="M139.6,142.7c-.1,8.2-.2,16.4-.3,24.6-.4,31.3-.8,62.6-1.2,93.9-4-2.6-7.9-5.2-11.7-7.9,1.5-28.7,2.9-57.4,4.4-86.1l1.3-24.7c2.5.1,5.1.2,7.6.2Z"/>
        </g>
        <g>
          <path class="st2" d="M157.5,39.8c-1.1,21.3-2.2,42.6-3.2,64l-1.9,36.5c-2.2-.1-4.4-.2-6.5-.2.2-12.1.3-24.2.5-36.3.3-21.5.5-42.9.8-64.4,3.4,0,6.9.1,10.3.3Z"/>
          <path class="st2" d="M174.8,41.5c-2.4,20.6-4.7,41.3-7.1,61.9-1.4,12.6-2.9,25.2-4.3,37.7-2.2-.3-4.3-.5-6.5-.6.9-12.3,1.9-24.6,2.8-36.9,1.6-21.1,3.2-42.2,4.8-63.4,3.4.3,6.9.7,10.3,1.2Z"/>
          <path class="st2" d="M191.8,44.6c-3.5,19.4-7,38.8-10.5,58.2-2.2,12.4-4.5,24.8-6.7,37.2-.2.9-.3,1.8-.5,2.7-1.3-.2-2.5-.4-3.8-.6-.9-.1-1.8-.3-2.7-.4,1.8-12.8,3.6-25.7,5.4-38.5h0c2.8-20.2,5.7-40.4,8.5-60.6,3.4.6,6.8,1.3,10.2,2Z"/>
          <path class="st2" d="M208.6,49.1c-4.3,17.6-8.7,35.2-13,52.9-2.9,11.9-5.9,23.8-8.8,35.7-.6,2.5-1.2,5-1.8,7.4-.3,0-.5-.1-.8-.2-1.9-.5-3.7-.9-5.6-1.3,2.8-13.7,5.7-27.4,8.5-41.1,3.9-18.8,7.7-37.5,11.6-56.3,3.3.9,6.7,1.8,10,2.8Z"/>
          <path class="st2" d="M225,54.8c-4.8,15.3-9.6,30.6-14.5,45.8h0l-10.6,33.5c-.9,2.9-1.8,5.7-2.7,8.6-.6,1.8-1.1,3.6-1.7,5.4-.9-.3-1.8-.6-2.7-.8h0c-1.2-.4-2.4-.7-3.6-1.1.6-2.2,1.2-4.3,1.8-6.5,3.5-12.8,7-25.6,10.5-38.3,4.6-16.7,9.2-33.5,13.8-50.2,3.3,1.1,6.5,2.3,9.7,3.6Z"/>
          <path class="st2" d="M241,61.7c-4.8,12.4-9.6,24.7-14.4,37.1-4,10.2-7.9,20.4-11.9,30.6h0c-1.4,3.6-2.8,7.2-4.2,10.8-1,2.7-2.1,5.4-3.2,8.1h0c-.5,1.3-1,2.6-1.5,3.8-2.1-.8-4.1-1.6-6.2-2.3,1.4-4.1,2.8-8.3,4.3-12.4,4.3-12.5,8.6-25,12.9-37.5,4.9-14.2,9.8-28.3,14.6-42.5,3.2,1.4,6.3,2.8,9.5,4.3Z"/>
          <path class="st2" d="M256.4,69.8c-4.1,8.9-8.2,17.7-12.4,26.6h0c-3.9,8.3-7.8,16.7-11.6,25-.1.3-.3.6-.4.9-1,2.1-2,4.2-2.9,6.3-1.5,3.3-3,6.5-4.6,9.8-1.1,2.3-2.2,4.7-3.3,7h0c-1.7,3.7-3.4,7.3-5.1,11,0,0,0,0,0,0-2-.9-4-1.9-6.1-2.7.9-2.3,1.9-4.5,2.8-6.8l4.6-11.1h0c1-2.3,2-4.7,3-7,.3-.7.6-1.5.9-2.2,4-9.6,8-19.1,12-28.7,4.6-11,9.2-22.1,13.9-33.1,3.1,1.6,6.1,3.2,9.2,5Z"/>
          <path class="st2" d="M257.2,84c-.2,3.5-.5,7-.9,10.4-.6,5.5-1.4,11-2.4,16.4-3.2,5.8-6.4,11.7-9.6,17.5-1.6,3-3.2,5.9-4.9,8.9-1.1,2.1-2.3,4.2-3.4,6.3-1.8,3.2-3.5,6.5-5.3,9.7-1.3,2.3-2.5,4.6-3.8,6.9-.2.4-.4.8-.6,1.2,0,0-.1.2-.2.3-.1,0-.3-.1-.4-.2-1.8-1-3.7-2-5.5-2.9,1.1-2.3,2.3-4.6,3.4-6.9h0s3.5-7,3.5-7c1.6-3.3,3.2-6.5,4.9-9.8,1-2.1,2.1-4.2,3.1-6.3h0c1.5-3,3-5.9,4.4-8.9,4-8.1,8.1-16.3,12.1-24.4,1.9-3.7,3.7-7.5,5.6-11.2Z"/>
          <path class="st2" d="M67,158.2c-1.8.9-3.6,1.9-5.5,2.9-.2,0-.3.2-.5.3,0-.1-.1-.3-.2-.4-.8-1.4-1.5-2.8-2.3-4.1-1.2-2.3-2.5-4.5-3.7-6.8h0c-1.7-3.2-3.5-6.4-5.2-9.5h0c-1.1-2.1-2.2-4.1-3.4-6.2-1.6-2.9-3.2-5.8-4.8-8.8-.9-1.6-1.7-3.1-2.6-4.7-2-9-3.5-18.1-4.5-27.3,0-.4,0-.8-.1-1.2.2.4.5.9.7,1.3l12.4,25h0c1.1,2.3,2.2,4.5,3.4,6.7,1,2.1,2.1,4.1,3.1,6.2,1.6,3.2,3.2,6.4,4.8,9.6,1.1,2.3,2.3,4.6,3.4,6.8,1.7,3.4,3.4,6.7,5,10.1Z"/>
          <path class="st2" d="M77.2,153.5c-.8.3-1.5.6-2.3,1-1.3.6-2.6,1.1-3.8,1.7-.6-1.2-1.1-2.4-1.7-3.6-1.7-3.6-3.3-7.2-5-10.8h0c-1.1-2.3-2.1-4.6-3.2-6.9-1.5-3.2-3-6.4-4.5-9.6-4.7-10.1-9.4-20.1-14.1-30.2-3.2-6.9-6.4-13.7-9.6-20.6,0-1.3,0-2.6,0-3.9,2.5-1.5,5.1-2.9,7.7-4.3,4.3,10.2,8.5,20.4,12.8,30.6,4.9,11.7,9.8,23.5,14.7,35.2,1.5,3.6,3,7.3,4.6,10.9,1.1,2.6,2.2,5.3,3.3,7.9.4.9.7,1.8,1.1,2.6Z"/>
          <path class="st2" d="M87.6,149.5c-.9.3-1.8.6-2.7,1h0c-1.2.4-2.4.9-3.5,1.3-1-2.6-2-5.3-3.1-7.9-1-2.6-2.1-5.3-3.1-7.9,0,0,0,0,0,0-.7-1.9-1.5-3.8-2.2-5.6-4.2-10.8-8.4-21.6-12.6-32.4h0c-4.5-11.6-9-23.2-13.5-34.8,3.1-1.5,6.2-3,9.4-4.4,4.6,13.5,9.3,27,13.9,40.4,3.9,11.4,7.9,22.8,11.8,34.2,1.4,4.1,2.8,8.1,4.2,12.2.4,1.3.9,2.6,1.3,3.9Z"/>
          <path class="st2" d="M98.1,146.3c-2.1.6-4.2,1.2-6.3,1.9l-.3-1h0c-1-3.2-2-6.4-3-9.6h0c-.3-.8-.5-1.6-.7-2.4-3.7-11.7-7.4-23.5-11.1-35.2-4.6-14.6-9.2-29.3-13.9-43.9,3.2-1.3,6.4-2.5,9.7-3.7,4.4,16.2,8.9,32.4,13.3,48.5,3.3,12.1,6.6,24.2,10,36.4.8,3,1.6,6,2.5,9Z"/>
          <path class="st2" d="M108.8,143.7c-1,.2-2.1.4-3.1.7-1.1.2-2.2.5-3.3.8-.4-1.7-.8-3.4-1.2-5.1h0c-.1-.6-.3-1.1-.4-1.7-3-12.3-6.1-24.6-9.1-37-4.2-17.1-8.4-34.2-12.7-51.3,3.3-1.1,6.6-2,9.9-3,3.8,18.3,7.6,36.6,11.4,55,2.6,12.6,5.2,25.1,7.8,37.7.3,1.3.5,2.6.8,3.9Z"/>
          <path class="st2" d="M119.6,141.8c-.2,0-.3,0-.5,0-1.8.3-3.6.5-5.3.9-.2,0-.4,0-.7.1-.1-.8-.3-1.5-.4-2.3-2.3-12.7-4.6-25.4-6.8-38.1-3.4-19-6.8-38.1-10.3-57.1,3.4-.8,6.7-1.5,10.1-2.2,2.8,19.9,5.6,39.8,8.4,59.7,1.8,12.8,3.6,25.7,5.4,38.5h0c0,0,0,.2,0,.3Z"/>
          <path class="st2" d="M130.5,140.6c-2.2.2-4.3.4-6.5.6-1.5-12.7-2.9-25.3-4.4-38-2.3-20.4-4.7-40.8-7-61.2,3.4-.5,6.8-1,10.2-1.4,1.6,21,3.2,41.9,4.8,62.9.9,12.3,1.9,24.7,2.8,37Z"/>
          <path class="st2" d="M141.5,140.1c-2.2,0-4.4,0-6.5.2-.6-12.2-1.2-24.4-1.9-36.6-1.1-21.2-2.2-42.4-3.2-63.6,3.4-.3,6.9-.4,10.3-.5.3,21.4.5,42.9.8,64.3.2,12.1.3,24.2.5,36.3Z"/>
        </g>
      </g>
    </g>
  </g>
  <g>
    <path class="st3" d="M98.6,67.2l-17.8-7.8c-.2,0-.5,0-.6.2,0,.2,0,.5.2.6l6.1,2.6-.9,2.1c0,.2-.3.3-.6.2-.7-.3-1.4,0-1.7.7l-.9,2.1c0,.2,0,.5.2.6s.5,0,.6-.2l.9-2.1c0-.2.4-.3.6-.2.7.3,1.4,0,1.7-.7l.9-2.1,3.7,1.6-1,2.5c-.7-.3-1.4,0-1.7.7l-.3.8c-.3.7,0,1.5.7,1.8l.8.4c.7.3,1.4,0,1.7-.7l.3-.8c.3-.7,0-1.5-.7-1.8l1-2.5,6.5,2.8c1.1.5,1.6,1.8,1.2,3l-.3.9-2.4-1.1c-.2,0-.3-.4-.2-.6.3-.7,0-1.5-.7-1.8l-.8-.4c-.2,0-.5,0-.6.2,0,.2,0,.5.2.6l.8.4c.2,0,.3.4.2.6-.3.7,0,1.5.7,1.8l2.4,1.1-.3.8-1.2-.5c-1.1-.5-2.4,0-2.9,1.2l-1.7,4.2-1.2-.5c-.7-.3-1.4,0-1.7.7l-.2.4c0,.2-.4.3-.6.2l-.5-.2c.1-.8-.3-1.6-1.1-1.9-.9-.4-1.9,0-2.3,1-.4.9,0,2,.9,2.4.8.3,1.6,0,2.1-.6l.5.2c.7.3,1.4,0,1.7-.7l.2-.4c0-.2.4-.3.6-.2l1.2.5-2.8,6.9c0,.2,0,.5.2.6.2,0,.5,0,.6-.2l.2-.6,2.4,1.1-1.4,3.4-1.2-.5c-.6-.2-.9-.8-.8-1.5,0-.2-.1-.5-.4-.5-.2,0-.5.1-.5.4-.2,1,.4,2,1.3,2.4l1.2.5-.7,1.7-2-.9c-.2,0-.5,0-.6.2,0,.2,0,.5.2.6l2,.9c-.5,1.2-1.8,1.7-2.9,1.2l-6.5-2.8,1.5-3.8c0-.2.4-.3.6-.2h0c-.1.8.3,1.6,1.1,2,.9.4,1.9,0,2.3-1,.4-.9,0-2-.9-2.4-.8-.3-1.6,0-2.1.6h0c-.7-.3-1.4,0-1.7.7l-1.5,3.8-3.2-1.4,2.4-5.9c0-.2,0-.5-.2-.6-.2,0-.5,0-.6.2l-2.4,5.9-3.2-1.4,3.1-7.6c.3-.7,0-1.5-.7-1.8l-.4-.2c-.2,0-.3-.4-.2-.6l1-2.6c.8.1,1.6-.3,1.9-1.1.4-.9,0-2-.9-2.4-.9-.4-1.9,0-2.3,1-.3.8,0,1.7.6,2.2l-1,2.6c-.3.7,0,1.5.7,1.8l.4.2c.2,0,.3.4.2.6l-3.1,7.6-2.4-1.1,1.4-3.4c.7.3,1.4,0,1.7-.7l.3-.8c.3-.7,0-1.5-.7-1.8l-.8-.4c-.7-.3-1.4,0-1.7.7l-.3.8c-.3.7,0,1.5.7,1.8l-1.4,3.4-3.3-1.4c-1.1-.5-1.6-1.8-1.2-3l1-2.5,1.2.5c1.1.5,2.4,0,2.9-1.2l5.4-13.5c.5-1.2,0-2.5-1.2-3l-1.2-.5.7-1.7,6.5,2.8c.2,0,.3.4.2.6l-.2.5c-.8-.1-1.6.3-1.9,1.1-.4.9,0,2,.9,2.4.9.4,1.9,0,2.3-1,.3-.8,0-1.7-.6-2.2l.2-.5c.3-.7,0-1.5-.7-1.8l-6.5-2.8c.5-1.2,1.8-1.7,2.9-1.2l2.2.9c.2,0,.5,0,.6-.2,0-.2,0-.5-.2-.6l-2.2-.9c-1.6-.7-3.4,0-4,1.7l-2.8,6.9c-3.7-1.3-7.4-.6-10.4,1.9-3.3,2.8-4.9,7.4-4.3,12.1l5.1,29.8h.8c0-.1-5.1-29.9-5.1-29.9-.6-4.3.9-8.7,4-11.3,2.7-2.3,6.2-2.9,9.6-1.8l-1.4,3.4c-2.8-.7-5.8,0-8,2-2.4,2.1-3.5,5.4-3,8.6l5,28.4.8-.2-5-28.4c-.5-2.9.5-5.9,2.7-7.8,2-1.8,4.6-2.5,7.1-1.9l-1.3,3.1-.6-.2c-1.8-.6-3.7-.3-5.2,1-1.4,1.3-2.1,3.2-1.7,5.1l5.2,29.2.8-.2-5.2-29.2c-.3-1.6.3-3.3,1.5-4.3,1.2-1.1,2.8-1.4,4.4-.9l.6.2-.4,1c0,.2,0,.5.2.6.2,0,.5,0,.6-.2l.3-.8,2.4,1.1-.9,2.1c-.3.7-1.1,1-1.7.7l-1.2-.5.2-.6c0-.2,0-.5-.2-.6-.2,0-.5,0-.6.2l-1.6,4c-.7,1.6,0,3.5,1.6,4.2l10.3,4.5c-.3.3-.6.5-.9.6-.6.2-1.3.1-1.8-.2-1.2-.7-2.6-.6-3.6.3-1.1.8-1.6,2.2-1.3,3.5l2.5,12.9.8-.2-2.5-12.9c-.2-1,.2-2,1-2.7.8-.6,1.9-.7,2.8-.2.8.4,1.6.5,2.5.2.6-.2,1.1-.6,1.4-1l3.4,1.5-1.1,2c-.4.6-1,1.1-1.7,1.3-.7.2-1.4,0-2-.4-1-.7-2.3-.8-3.3,0-1,.7-1.5,1.9-1.2,3.2l1.5,6.7.8-.2-1.5-6.7c-.2-1.1.3-1.9.9-2.3.6-.4,1.5-.6,2.4,0,.8.6,1.7.8,2.7.6.9-.2,1.7-.8,2.2-1.7l1.2-2.1,6.7,2.9c1.6.7,3.4,0,4-1.7l9.2-22.7c.7-1.6,0-3.5-1.6-4.2ZM90.6,69.2l-.3.8c0,.2-.4.3-.6.2l-.8-.4c-.2,0-.3-.4-.2-.6l.3-.8c0-.2.4-.3.6-.2l.8.4c.2,0,.3.4.2.6ZM87.5,79.2c-.2.5-.7.7-1.2.5-.4-.2-.7-.7-.5-1.2.2-.5.7-.7,1.2-.5.4.2.7.7.5,1.2ZM84,88c.2-.5.7-.7,1.2-.5.4.2.7.7.5,1.2-.2.5-.7.7-1.2.5-.4-.2-.7-.7-.5-1.2ZM75,73.7c.2-.5.7-.7,1.2-.5.4.2.7.7.5,1.2-.2.5-.7.7-1.2.5-.4-.2-.7-.7-.5-1.2ZM70.2,82l.3-.8c0-.2.4-.3.6-.2l.8.4c.2,0,.3.4.2.6l-.3.8c0,.2-.4.3-.6.2l-.8-.4c-.2,0-.3-.4-.2-.6ZM80.2,66.6c-.2.5-.7.7-1.2.5-.4-.2-.7-.7-.5-1.2.2-.5.7-.7,1.2-.5.4.2.7.7.5,1.2ZM72.1,63.1l1.2.5c.7.3,1,1.1.7,1.8l-.9,2.1-2.4-1.1,1.4-3.4ZM70.4,67.3l2.4,1.1-1.4,3.4-2.4-1.1,1.4-3.4ZM67.3,74.9l1.4-3.4,2.4,1.1-1.4,3.4-2.4-1.1ZM93.3,86.1l-2.4-1.1,1.4-3.4,2.4,1.1-1.4,3.4ZM95,81.9l-2.4-1.1,1.4-3.4,2.4,1.1-1.4,3.4ZM96.7,77.7l-2.4-1.1.9-2.1c.3-.7,1.1-1,1.7-.7l1.2.5-1.4,3.4Z"/>
    <path class="st3" d="M83.1,77.3c.4-1-.1-2.1-1.1-2.5-.6-.3-1.1,0-1.3.1-.3.2-.4.6-.6,1-.2.5-.7,1.7.6,2.3,1,.4,2.1,0,2.5-.9ZM80.9,76.3c.1-.3.2-.6.4-.7,0,0,.1-.1.4,0,.5.2.9.8.6,1.3-.2.5-.8.7-1.4.5-.3-.1-.4-.3,0-1.1Z"/>
    <path class="st3" d="M79.6,79.4c.2,0,.5,0,.6-.2,0-.2,0-.5-.2-.6-.6-.3-1.4,0-1.6.7-.3.7,0,1.4.7,1.7.2,0,.5,0,.6-.2,0-.2,0-.5-.2-.6-.2,0-.3-.3-.2-.5,0-.2.3-.3.5-.2Z"/>
    <path class="st3" d="M82.8,71.6c-.6-.3-1.4,0-1.6.7-.3.7,0,1.4.7,1.7.2,0,.5,0,.6-.2,0-.2,0-.5-.2-.6-.2,0-.3-.3-.2-.5,0-.2.3-.3.5-.2.2,0,.5,0,.6-.2,0-.2,0-.5-.2-.6Z"/>
  </g>
  <g>
    <path class="st3" d="M206.9,90.7c-2.7.2-5.1,2.2-5.2,4.4-.2,2.2,1.9,3.8,4.6,3.5,1.3-.1,2.5-.6,3.5-1.4.3-.2.3-.5,0-.7-.2-.2-.6-.1-.9,0-.7.6-1.7.9-2.6,1-2,.2-3.6-1-3.5-2.7.1-1.6,1.9-3.1,3.9-3.3,2.2-.2,3.9,1.2,3.4,3.1,0,.3.2.5.5.5.3,0,.7-.2.7-.5.6-2.4-1.6-4.3-4.6-4.1Z"/>
    <path class="st3" d="M226.9,75.8l-.2-2.1c-.3-4.4-3.9-7.7-8.2-7.5h-2.8c-3.2.2-6.6,3.7-7.8,6.7h0c-.7.4-1.4.8-1.8,1.4,0,0,0,0,0,.1,0,0,0,0,0,0-.1.2-.3.6-.4,1.1v.5s-.1,1.5-.1,1.5c0,0,0,.5.2,1h0c.1.3.3.5.6.7h0c.5.4,1.3.6,2.1.5h1.2c.5.4,1.4.8,2.4.7h.8c0,0-.1.2-.1.3l-6.3,7.1c-4.4.7-8.1,4-8.4,7.6-.1,1.4.3,2.6,1.1,3.7l-2.1,3.9c-.9,1.7.4,3.3,2.6,3.1l12.5-1.1c2.2-.2,3.8-2.1,3.1-3.6l-1.6-3.6c1.9-2.2,2.2-4.9,1-7l3-4.7,5.7-2.8c2.5-1.6,3.9-4.5,3.7-7.6ZM209.4,74.2l-.3,4c0,.3,0,.4,0,.5h-.7c-1,.1-1.8-.4-1.7-1.2v-2.1c.2-.8,1.1-1.5,2.1-1.6h.7c0,.1,0,.3,0,.4ZM212,79.4c-1,0-1.8-.5-1.7-1.3l.3-4c0-.8.9-1.6,2-1.6l7.4-.6c1,0,1.8.5,1.7,1.3l-.3,4c0,.5-.5,1.1-1.1,1.4-1.7-1.7-5.1-1.3-6.9.8h-1.4ZM214,101.8c.4.9-.6,2.1-1.9,2.2l-12.5,1.1c-1.3.1-2.1-.9-1.6-1.9l1.8-3.3c3.2,2.7,9.1,2.2,12.7-1.1l1.4,3.1ZM214,94c-.3,3.3-3.8,6.2-7.9,6.6-4.1.4-7.2-2-7-5.3.2-3.3,3.8-6.2,7.9-6.6,4.1-.4,7.2,2,7,5.3ZM213.8,89.9c-1.3-1.4-3.5-2.3-6-2.2l4.8-5.4c.5,1.6,2.5,2.5,4.8,2l-3.5,5.6ZM216.6,83.4c-1.7.1-3-.8-2.9-2.2.1-1.4,1.6-2.6,3.3-2.7,1.7-.2,3,.8,2.9,2.2-.1,1.4-1.6,2.6-3.3,2.7ZM222.8,82.7l-4.6,2.2.9-1.4c1.7-1.1,2.4-2.8,1.8-4.3,1-.5,1.6-1.4,1.7-2.3l.3-4c0-1.4-1.2-2.3-2.9-2.2l-7.4.6c-1,0-1.9.5-2.5,1.2h-1.1c0,0-.2,0-.2,0,1.2-2.7,4.3-5.6,7-5.7h2.8c3.9-.3,7.1,2.7,7.4,6.7l.2,2.1c.2,2.8-1.1,5.4-3.3,6.9Z"/>
    <path class="st3" d="M206.8,78.6c-.1-.2-.3-.6-.3-1.1h0s-6-1.2-6-1.2c-.3,0-.6.1-.6.4,0,.3.3.6.6.6l6.2,1.2s0,0,0,.1Z"/>
    <path class="st3" d="M206.9,74.5l-11.8-2.3c0,0-.1-.2-.2-.3,0,0,0,0,0,0,0,0,0,0,0,0,0,0-.1-.1-.2-.2-.5-.4-.9-.6-1.3-.7,0,0,0,0-.1,0-.2,0-.3,0-.3,0h0s0,0,0,0c-.1,0-.3,0-.6-.1h-.3c0,0-.2,0-.2,0h-.3c0,0-.1,0-.1,0,0,0,0,0-.1,0,0,0-.1,0-.2,0-.6,0-1,0-1.3.2,0,0-.2,0-.2.1,0,0-.2,0-.2.1,0,0,0,0,0,0h0c-.5.3-.7.8-.8,1.4v1c0,1.3,1.1,2.5,2.6,3v.7c-.3,0-.5.2-.7.3h-.4c-1.7-.5-3.1.3-3.2,1.7v1c-.1.7.2,1.5.8,2.1l2.2,2.1c.6.6,1.7.4,1.7-.2v-.8c0-.2,0-.5-.2-.7l-1.6-1.5c-.2-.2-.3-.5-.3-.7v-.7c0-.2.2-.2.4-.2h.4c.9,1.4,2.8,1.8,3.9,1h.4c.2.1.3.3.3.4v.7c0,.2-.2.4-.5.5-.1,0-.2.2,0,.4.1.1.3.2.5.1.4-.2.6-.5.7-.9v-.7c0-.4-.3-.9-.9-1h-.1c.2-.3.2-.7,0-1.1h.1c1.3.3,2.3,1.4,2.2,2.5v1c-.1.6-.5,1-1,1.3l-2.5,1.1c-.2.1-.6-.1-.5-.3v-.8c0,0,.1-.1.2-.2l.5-.2c.1,0,.2-.2,0-.4-.1-.1-.3-.2-.5-.1l-.5.2c-.2.1-.4.3-.4.5v.8c-.1.7.9,1.3,1.6,1l2.5-1.1c.7-.3,1.2-.9,1.2-1.6v-1c.2-1.4-1.1-2.8-2.8-3.1h-.4c-.1-.3-.3-.5-.5-.7v-1c.6,0,1.1-.2,1.4-.5l2.7.5c.3,0,.6,0,.6-.4,0-.3-.3-.5-.6-.6l-2.2-.4c0-.1,0-.3,0-.4v-1c0-.2,0-.3,0-.5l11,2.2s0-.5.3-.9ZM189.8,79h-.1c-.6-.2-1,.1-1.1.6v.7c0,.4.1.8.5,1.2l1.6,1.5c0,0,.1.2.1.2v.8c0,.2-.4.3-.6,0l-2.2-2.1c-.5-.5-.8-1.1-.7-1.6v-1c.2-1.1,1.3-1.7,2.6-1.4h.1c-.2.4-.2.7,0,1.1ZM192.2,77.6c.9.2,1.6,1,1.6,1.7,0,.8-.9,1.2-1.8,1-.9-.2-1.6-1-1.6-1.7,0-.8.9-1.2,1.8-1ZM191.5,76.9v-.5s1,.2,1,.2c.2,0,.3,0,.4,0v.5c-.5-.2-.9-.3-1.4-.3ZM194.4,74.5c0,.8-.9,1.3-1.9,1.1l-1.2-.3c-1-.2-1.8-1-1.8-1.8v-1c0-.8.9-1.3,1.9-1.1h.3c0,0,.9.2.9.2.2,0,.4.1.6.2.7.3,1.2,1,1.2,1.7v1Z"/>
    <path class="st3" d="M205.6,75.5h0v.5c0-.2,0-.3,0-.5Z"/>
    <path class="st3" d="M206.2,79.2s0,0-.1,0c-.2-.2-.4-.4-.5-.6h0c.1.3.3.5.6.7Z"/>
  </g>
  <g>
    <path class="st1" d="M92.9,177.2s0,0,0,0c4.5.4,9.1.8,13.6,1.1,0,0,0,0,0,0,0,1.2-.2,2.4-.3,3.7,0,0,0,0,0,0-3.4-.2-6.8-.5-10.2-.8-.2,2.1-.4,4.2-.6,6.3,3.4.3,6.9.6,10.3.8,0,0,0,0,0,0,0,1.2-.2,2.4-.3,3.7,0,0,0,0,0,0-4.7-.3-9.3-.7-13.9-1.1,0,0,0,0,0,0,.4-4.6.9-9.1,1.3-13.7Z"/>
    <path class="st1" d="M127.4,179.4s0,0,0,0c-.1,3.3-.2,6.7-.3,10,3.5.1,6.9.2,10.4.3,0,0,0,0,0,0,0,1.2,0,2.4,0,3.7,0,0,0,0,0,0-4.7,0-9.3-.2-14-.4,0,0,0,0,0,0,.2-4.6.4-9.2.5-13.7,0,0,0,0,0,0,1.1,0,2.3,0,3.4.1Z"/>
    <path class="st1" d="M158.6,179.5s0,0,0,0c0,3.3.1,6.7.2,10,2.3,0,4.6-.1,6.9-.2-.1-3.3-.2-6.7-.3-10,0,0,0,0,0,0,1.1,0,2.3,0,3.4-.1,0,0,0,0,0,0,.2,4.6.4,9.2.5,13.7,0,0,0,0,0,0-4.7.2-9.3.3-14,.4,0,0,0,0,0,0,0-4.6-.1-9.2-.2-13.7,0,0,0,0,0,0,1.1,0,2.3,0,3.4,0Z"/>
    <path class="st1" d="M199.9,177.2s0,0,0,0c.4,4.6.9,9.1,1.3,13.7,0,0,0,0,0,0-4.6.4-9.3.8-13.9,1.1,0,0,0,0,0,0-.3-4.6-.6-9.1-1-13.7,0,0,0,0,0,0,4.5-.3,9.1-.7,13.6-1.1ZM190.1,183.1c2.3-.2,4.5-.4,6.8-.6,0-.4,0-.8-.1-1.3-2.3.2-4.5.4-6.8.6,0,.4,0,.8,0,1.3ZM190.5,188.1c2.3-.2,4.6-.4,6.8-.6,0-.4,0-.8-.1-1.2-2.3.2-4.6.4-6.8.6,0,.4,0,.8,0,1.2Z"/>
  </g>
  <path class="st0" d="M272.4,94.8l-8.4,62.4s-51.3,13.3-120.8,13.3-116.7-13-116.7-13l-9-63.7c16.5,3.8,64.2,13.4,128.2,13.4s105.2-8.1,126.7-12.5Z"/>
  <g>
    <path class="st1" d="M27,107.8c0-.1,0-.1.1-.1,10.3,1.9,20.5,3.6,30.8,5,0,0,.1,0,.1.2.8,8,1.6,16,2.4,23.9,0,.1,0,.2-.1.1-3.2-.5-6.5-1-9.8-1.5,0,0,0,0,0,.1,7,6.6,10.5,9.9,10.7,10.3.2,1.6.3,3.2.5,4.8,0,.1,0,.2-.1.1-2.4-.4-4.8-.7-7.2-1.1-.1,0-3.1-2.9-9-8.8-4.8-4.8-7.3-7.2-7.5-7.3.6,4.4,1.1,8.9,1.7,13.3,0,.1,0,.2,0,.1-2.5-.5-4.9-.9-7.4-1.4,0,0-.1,0-.1-.2-1.7-12.5-3.4-25.1-5.1-37.6ZM36.6,122.9c5,.9,10,1.7,15,2.5-.1-1.2-.3-2.3-.4-3.5-5-.8-10-1.6-15-2.5.1,1.2.3,2.3.4,3.5Z"/>
    <path class="st1" d="M90.6,116.4c0,0,.1,0,.1.2.8,12.6,1.6,25.2,2.4,37.8,0,.1,0,.2-.1.1-9.8-.9-19.5-2.1-29.3-3.5,0,0-.1,0-.1-.2-1.2-12.6-2.5-25.1-3.7-37.7,0-.1,0-.2.1-.2,10.2,1.4,20.4,2.5,30.6,3.4ZM70.2,141.7c4.9.6,9.8,1.2,14.7,1.7-.4-5.8-.8-11.5-1.2-17.3-5-.5-10-1.1-15-1.7.5,5.8,1,11.5,1.5,17.3Z"/>
    <path class="st1" d="M123.2,118.4c0,0,.1,0,.1.2.3,12.6.6,25.3,1,37.9,0,.1,0,.2-.1.2-9.7-.4-19.5-1-29.2-1.9,0,0-.1,0-.1-.2-.8-12.6-1.5-25.2-2.3-37.8,0-.1,0-.2.1-.1,10.2.9,20.4,1.5,30.6,1.8ZM101.1,131.1c5,.4,9.9.7,14.9.9,0-1.2,0-2.3-.1-3.5-5-.2-9.9-.5-14.9-.9,0,1.2.1,2.3.2,3.5ZM101.8,144.9c4.9.4,9.8.7,14.6.9,0-1.1,0-2.3-.1-3.4-4.9-.2-9.8-.5-14.7-.9,0,1.1.1,2.3.2,3.4Z"/>
    <path class="st1" d="M155.8,118.7c0,0,.1,0,.1.2-.2,12.6-.3,25.2-.5,37.9,0,.1,0,.2-.1.2-9.7.2-19.4,0-29.2-.2,0,0-.1,0-.1-.2-.3-12.6-.6-25.2-.9-37.9,0-.1,0-.2.1-.2,10.2.3,20.3.4,30.5.2ZM133.4,146.4c4.9.1,9.7.1,14.6.1,0-5.8,0-11.6,0-17.3-5,0-9.9,0-14.9-.1,0,5.8.2,11.6.2,17.3Z"/>
    <path class="st1" d="M168.6,129c-3.7.1-7.3.2-11,.3,0,0-.1,0-.1-.2,0-3.5,0-6.9.1-10.4,0-.1,0-.2.1-.2,10.2-.2,20.4-.6,30.5-1.3,0,0,.1,0,.1.2-.2,3.5-.3,6.9-.5,10.4,0,.1,0,.2-.1.2-3.7.3-7.4.5-11,.7-.3,9.1-.7,18.2-1,27.3,0,.1,0,.2-.1.2-2.6.1-5.1.3-7.7.4,0,0-.1,0-.1-.2.2-9.1.5-18.2.7-27.4Z"/>
    <path class="st1" d="M190.3,117.2c-.7,12.7-1.3,25.4-2,38.2.9,0,1.8-.1,2.6-.2l1-14.5c-.6-.2-.9-.8-.9-1.4,0-.8.7-1.4,1.5-1.3.8,0,1.4.7,1.3,1.5,0,.6-.5,1.1-1.1,1.3l-1,14.4c.6,0,1.2,0,1.8-.2l1.5-18.1h-3c0-.1.8-11.3.8-11.3-.6-.2-.9-.8-.9-1.4,0-.8.7-1.4,1.5-1.3.8,0,1.4.7,1.3,1.5,0,.6-.5,1.1-1.1,1.3l-.7,10.2h3c0,.1-1.6,19.1-1.6,19.1.4,0,.8,0,1.2-.1.8-12.7,1.5-25.4,2.3-38.2-2.6.2-5.2.4-7.9.6Z"/>
    <path class="st1" d="M200.3,116.5c0-.1,0-.2.1-.2,10.2-.9,20.4-2,30.7-3.4,0,0,.1,0,0,.1-.3,3.4-.7,6.7-1,10.1,0,.1,0,.2-.1.2-7.6,1-15.1,1.9-22.6,2.7-.4,5.8-.8,11.6-1.2,17.3,7.4-.8,14.8-1.7,22.2-2.7,0,0,0,0,0,.1-.3,3.4-.7,6.7-1,10.1,0,.1,0,.2-.1.2-9.8,1.4-19.6,2.6-29.3,3.5,0,0-.1,0-.1-.1.8-12.6,1.6-25.2,2.4-37.8Z"/>
    <path class="st1" d="M263.9,107.7c0,0,.1,0,.1.1-.5,3.3-.9,6.7-1.4,10,0,.1,0,.2-.1.2-7.6,1.4-15.2,2.7-22.8,3.9-.1,1.1-.2,2.3-.4,3.4,7.5-1.2,15.1-2.5,22.7-3.9,0,0,.1,0,.1.2-1.1,8-2.1,15.9-3.2,23.9,0,.1,0,.2-.1.2-9.9,2-19.7,3.7-29.5,5.1,0,0-.1,0-.1-.1.3-3.4.7-6.7,1-10.1,0-.1,0-.2.1-.2,7.4-1.1,14.8-2.3,22.3-3.7.1-1.1.3-2.3.4-3.4-7.5,1.4-14.9,2.6-22.4,3.7,0,0-.1,0-.1-.1.8-8,1.6-16,2.4-23.9,0-.1,0-.2.1-.2,10.2-1.4,20.5-3.1,30.8-5Z"/>
    <path class="st1" d="M198.2,116.6c-.8,12.7-1.5,25.4-2.3,38.2-.4,0-.8,0-1.2.1l1.6-18.9h-3c0-.1.7-10.4.7-10.4.6-.1,1-.7,1.1-1.3,0-.8-.5-1.5-1.3-1.5-.8,0-1.5.5-1.5,1.3,0,.6.3,1.2.9,1.4l-.8,11.1h3c0,.1-1.5,18.3-1.5,18.3-.6,0-1.2.1-1.8.2l1-14.4c.6-.1,1-.7,1.1-1.3,0-.8-.5-1.5-1.3-1.5-.8,0-1.5.5-1.5,1.3,0,.6.3,1.2.9,1.4l-1,14.5c-.9,0-1.8.1-2.6.2.7-12.7,1.3-25.4,2-38.2,2.6-.2,5.2-.4,7.9-.6Z"/>
  </g>
  <g>
    <path class="st1" d="M117,79.1c0,0,0,0,0,0-.4,5.1-.8,10.1-1.2,15.2,3.8.3,7.6.5,11.4.7.2-5.1.5-10.1.7-15.2,0,0,0,0,0,0,1.8,0,3.7.1,5.5.2,0,0,0,0,0,0-.2,7-.4,14-.6,21,0,0,0,0,0,0-7.8-.2-15.6-.7-23.4-1.4,0,0,0,0,0,0,.7-7,1.3-13.9,2-20.9,0,0,0,0,0,0,1.8.2,3.6.3,5.5.5Z"/>
    <path class="st1" d="M139.7,101.2c0-7.1.1-14.1.2-21.2,1.9,0,3.8,0,5.7,0,0,7.1.1,14.1.2,21.2-2,0-4,0-6,0Z"/>
    <path class="st1" d="M157.4,79.8c0,0,0,0,0,0,.2,5.1.5,10.1.7,15.2,3.8-.2,7.6-.4,11.4-.7-.4-5.1-.8-10.1-1.2-15.2,0,0,0,0,0,0,1.8-.1,3.7-.3,5.5-.5,0,0,0,0,0,0,.7,7,1.3,13.9,2,20.9,0,0,0,0,0,0-7.8.7-15.6,1.2-23.4,1.4,0,0,0,0,0,0-.2-7-.4-14-.6-21,0,0,0,0,0,0,1.8,0,3.7-.1,5.5-.2Z"/>
  </g>
  <g>
    <path class="st0" d="M132.6,234.5c-2.4,0-4.3,2-4.4,4.5,0,.4.3.7.6.7s.6-.3.6-.6c0-1.8,1.5-3.2,3.1-3.2s3.1,1.5,3.1,3.3-1.4,3.3-3.1,3.3-1.7-.4-2.3-1c-.2-.3-.6-.3-.9,0-.2.3-.3.7,0,.9.8.9,2,1.4,3.2,1.4,2.4,0,4.4-2,4.4-4.6s-2-4.6-4.4-4.6h0ZM132.6,234.5"/>
    <path class="st0" d="M148.3,215.5c0-1.8-1.4-3.3-3.1-3.3s-3.1,1.5-3.1,3.3,1.4,3.3,3.1,3.3,3.1-1.5,3.1-3.3h0ZM143.3,215.5c0-1.1.8-2,1.9-2s1.9.9,1.9,2-.8,2-1.9,2-1.9-.9-1.9-2h0ZM143.3,215.5"/>
    <path class="st7" d="M162.8,230.6h-.4c0-.3-.2-.5-.3-.8l.3-.3c.7-.8.7-2,0-2.8l-.9-.9c-.7-.8-1.9-.8-2.7,0l-.3.3c-.2-.1-.5-.2-.7-.3v-.5c0-1.1-.8-1.9-1.9-1.9h-1.3c-.5,0-1,.2-1.3.5l-2.4-4.3c.8-1.2,1.2-2.5,1.2-4,0-4-3.1-7.2-6.9-7.2s-6.9,3.2-6.9,7.2.6,3.2,1.5,4.4l-2.4,4.3c-.2.4,0,1,.5,1s.4-.1.5-.3l2.2-3.9c.6.6,1.4,1,2.2,1.3l-4.4,7.9c-.6,0-1,.2-1.4.6l-.7.8c-.4-.2-.8-.4-1.2-.5l1.9-3.4c.2-.3,0-.7-.2-.9-.3-.2-.7,0-.9.2l-1.1,2c-.3-.5-.9-.9-1.6-.9h-1.3c-1,0-1.9.9-1.9,1.9v1.1c-.4.1-.8.3-1.2.5l-.7-.8c-.7-.8-1.9-.8-2.7,0l-.9.9c-.7.8-.7,2,0,2.8l.7.8c-.2.4-.4.8-.5,1.3h-1c-1,0-1.9.9-1.9,1.9v1.3c0,1.1.8,1.9,1.9,1.9h1c.1.4.3.9.5,1.3l-.7.8c-.7.8-.7,2,0,2.8l.9.9c.7.8,1.9.8,2.7,0l.7-.8c.4.2.8.4,1.2.5v1.1c0,1.1.8,1.9,1.9,1.9h1.3c1,0,1.9-.9,1.9-1.9v-1.1c.4-.1.8-.3,1.2-.5l.7.8c.7.8,1.9.8,2.7,0l.9-.9c.7-.8.7-2,0-2.8l-.7-.8c.2-.4.4-.8.5-1.3h1c1,0,1.9-.9,1.9-1.9v-.8l4.3-.5c0,.5.2.9.5,1.3l.9.9c.7.8,1.9.8,2.7,0l.3-.3c.2.1.5.2.7.3v.5c0,1.1.8,2,1.9,2h1.3c1,0,1.9-.9,1.9-2v-.5c.2,0,.5-.2.7-.3l.3.3c.7.8,1.9.8,2.7,0l.9-.9c.7-.8.7-2,0-2.8l-.3-.3c.1-.3.2-.5.3-.8h.4c1,0,1.9-.9,1.9-2v-1.3c0-1.1-.8-1.9-1.9-1.9h0ZM152.8,225.8c-.3,0-.5.2-.7.3l-.3-.3c-.5-.5-1.3-.7-2-.5l-1.8-3.2c.8-.4,1.5-.9,2.1-1.5l2.7,4.9v.3ZM139.5,215.5c0-3.2,2.5-5.9,5.7-5.9s5.7,2.6,5.7,5.9-2.5,5.9-5.7,5.9-5.7-2.6-5.7-5.9h0ZM144.1,222.6c.9.1,1.8.1,2.6,0l2,3.6-.6.6c-.7.8-.7,2,0,2.8l.3.3c-.1.3-.2.5-.3.8h-.4c-1,0-1.9.9-1.9,1.9v.8l-4.9.6c.4-.7.2-1.6-.4-2.3l-1-1,4.5-8ZM148,237l-4.9.6c-.3-.7-1-1.2-1.7-1.2h-1c-.1-.4-.3-.7-.4-1.1l6-.7c.3.7,1,1.2,1.7,1.2h.4c0,.3.2.5.3.8-.3.3-.4.4-.4.5h0ZM142.1,239.7c0,.4-.3.6-.6.6h-1c-.5,0-1,.4-1.2.9-.1.4-.3.7-.4,1.1-.2.5-.2,1.1.2,1.5l.7.8c.2.3.2.7,0,.9l-.9.9c-.2.3-.6.3-.9,0l-.7-.8c-.4-.4-1-.5-1.5-.2-.3.2-.7.3-1,.4-.5.2-.9.7-.9,1.2v1.1c0,.4-.3.6-.6.6h-1.3c-.3,0-.6-.3-.6-.6v-1.1c0-.6-.3-1.1-.9-1.2-.4-.1-.7-.3-1-.4-.5-.3-1.1-.2-1.5.2l-.7.8c-.2.3-.6.3-.9,0l-.9-.9c-.2-.3-.2-.7,0-.9l.7-.8c.4-.4.5-1,.2-1.5-.2-.3-.3-.7-.4-1.1-.2-.5-.6-.9-1.2-.9h-1c-.3,0-.6-.3-.6-.6v-1.3c0-.4.3-.6.6-.6h1c.5,0,1-.4,1.2-.9.1-.4.3-.7.4-1.1.2-.5.2-1.1-.2-1.5l-.7-.8c-.2-.3-.2-.7,0-.9l.9-.9c.2-.3.6-.3.9,0l.7.8c.4.4,1,.5,1.5.2.3-.2.7-.3,1-.4.5-.2.9-.7.9-1.2v-1.1c0-.4.3-.6.6-.6h1.3c.3,0,.6.3.6.6v1.1c0,.6.3,1.1.9,1.2.4.1.7.3,1,.4.5.3,1.1.2,1.5-.2l.7-.8c.2-.3.6-.3.9,0l.9.9c.2.3.2.7,0,.9l-.7.8c-.4.4-.5,1-.2,1.5.2.3.3.7.4,1.1.2.5.6.9,1.2.9h1c.3,0,.6.3.6.6v1.3ZM163.4,233.8c0,.4-.3.6-.6.6h-.4c-.5,0-1,.3-1.2.9,0,.2-.2.4-.3.6-.2.5-.1,1.1.2,1.5l.3.3c.2.3.2.7,0,.9l-.9.9c-.2.3-.6.3-.9,0l-.3-.3c-.4-.4-.9-.5-1.4-.3-.2.1-.4.2-.6.3-.5.2-.8.7-.8,1.2v.5c0,.4-.3.6-.6.6h-1.3c-.3,0-.6-.3-.6-.6v-.5c0-.6-.3-1-.8-1.2-.2,0-.4-.2-.6-.3-.5-.2-1-.1-1.4.3l-.3.3c-.2.3-.6.3-.9,0l-.9-.9c-.2-.3-.2-.7,0-.9l.3-.3c.4-.4.5-1,.2-1.5,0-.2-.2-.4-.3-.6-.2-.5-.6-.9-1.2-.9h-.4c-.3,0-.6-.3-.6-.6v-1.3c0-.4.3-.6.6-.6h.4c.5,0,1-.3,1.2-.9,0-.2.2-.4.3-.6.2-.5.1-1.1-.2-1.5l-.3-.3c-.2-.3-.2-.7,0-.9l.9-.9c.2-.3.6-.3.9,0l.3.3c.4.4.9.5,1.4.3.2-.1.4-.2.6-.3.5-.2.8-.7.8-1.2v-.5c0-.4.3-.6.6-.6h1.3c.3,0,.6.3.6.6v.5c0,.6.3,1,.8,1.2.2,0,.4.2.6.3.5.2,1,.1,1.4-.3l.3-.3c.2-.3.6-.3.9,0l.9.9c.2.3.2.7,0,.9l-.3.3c-.4.4-.5,1-.2,1.5,0,.2.2.4.3.6.2.5.6.9,1.2.9h.4c.3,0,.6.3.6.6v1.3ZM163.4,233.8"/>
    <path class="st0" d="M155.3,228.6c-2.4,0-4.4,2-4.4,4.6s3,5.3,5.8,4.3c.3-.1.5-.5.4-.8-.1-.3-.5-.5-.8-.4-2,.7-4.1-.9-4.1-3.1s1.4-3.3,3.1-3.3,3.8,2.5,2.8,4.7c-.2.3,0,.7.3.9.3.2.7,0,.8-.3,1.4-3-.7-6.6-4-6.6h0ZM155.3,228.6"/>
  </g>
</svg>